<?xml version="1.0" encoding="UTF-8" standalone="no"?>
<!-- Created with Inkscape (http://www.inkscape.org/) -->

<svg
   width="180"
   height="80"
   viewBox="0 0 47.625 21.166666"
   version="1.1"
   id="svg5"
   inkscape:version="1.2.2 (b0a8486541, 2022-12-01, custom)"
   sodipodi:docname="canon.svg"
   xml:space="preserve"
   xmlns:inkscape="http://www.inkscape.org/namespaces/inkscape"
   xmlns:sodipodi="http://sodipodi.sourceforge.net/DTD/sodipodi-0.dtd"
   xmlns="http://www.w3.org/2000/svg"
   xmlns:svg="http://www.w3.org/2000/svg"><sodipodi:namedview
     id="namedview7"
     pagecolor="#ffffff"
     bordercolor="#666666"
     borderopacity="1.0"
     inkscape:showpageshadow="2"
     inkscape:pageopacity="1"
     inkscape:pagecheckerboard="0"
     inkscape:deskcolor="#d1d1d1"
     inkscape:document-units="mm"
     showgrid="false"
     inkscape:zoom="6.7888889"
     inkscape:cx="90"
     inkscape:cy="40.139116"
     inkscape:window-width="1846"
     inkscape:window-height="1016"
     inkscape:window-x="0"
     inkscape:window-y="0"
     inkscape:window-maximized="1"
     inkscape:current-layer="layer1" /><defs
     id="defs2" /><g
     inkscape:label="Layer 1"
     inkscape:groupmode="layer"
     id="layer1"><rect
       style="fill:#d0d0d0;stroke-width:10.0542;stroke-linecap:square;stroke-miterlimit:3.6;paint-order:markers fill stroke"
       id="rect260"
       width="47.625"
       height="21.166666"
       x="-47.625"
       y="0"
       transform="scale(-1,1)" /><g
       id="g2582"><path
         style="fill:#303030;stroke-width:0.999999;fill-opacity:1"
         d="m 32.879539,5.5584256 c -0.07959,-0.04318 -0.152138,-0.08386 -0.161229,-0.0904 -0.02046,-0.01472 0.804599,-2.637597 0.962233,-3.058954 0.215684,-0.576522 0.769968,-0.785412 1.113571,-0.419664 0.298103,0.317317 0.192567,0.603276 -0.796312,2.157701 -0.486464,0.764676 -0.904524,1.412711 -0.929022,1.440077 -0.0245,0.02737 -0.109656,0.01442 -0.189241,-0.02876 z"
         id="path1109" /><path
         style="fill:#303030;stroke-width:0.999999;fill-opacity:1"
         d="m 42.296282,13.296949 c -0.09272,-2.635345 -0.413769,-3.518643 -1.795298,-4.9393804 -0.426438,-0.43854 -0.809987,-0.888465 -0.852326,-0.999833 -0.158931,-0.418018 0.08356,-0.843595 0.480678,-0.843595 0.477763,0 0.846227,0.312088 1.352583,1.145647 0.53031,0.872986 0.991816,2.5606784 1.101354,4.0275994 0.07119,0.953432 0.07281,0.955493 0.476945,0.610046 0.506537,-0.432971 1.004825,-1.2288 1.267361,-2.024111 0.37329,-1.1308404 0.466636,-2.5283214 0.228641,-3.4231024 -0.0408,-0.153392 -0.05371,-0.332246 -0.02868,-0.397452 0.03882,-0.101175 0.06644,-0.09211 0.188363,0.06185 0.255815,0.32302 0.566775,0.993295 0.728181,1.569581 0.213989,0.764023 0.211746,2.0432894 -0.0051,2.8794684 -0.354363,1.366824 -1.171584,2.537392 -2.296944,3.290077 -0.828436,0.554092 -0.791183,0.596235 -0.845822,-0.956791 z"
         id="path1105" /><path
         style="fill:#303030;stroke-width:0.999999;fill-opacity:1"
         d="m 23.046337,13.694882 c -0.147016,-3.057564 -0.470146,-3.959644 -1.954392,-5.4560464 -0.73729,-0.743328 -0.765121,-0.782876 -0.765121,-1.087238 0,-0.429158 0.156179,-0.637448 0.477969,-0.637448 0.346674,0 0.609301,0.151123 0.965121,0.555356 0.681066,0.773733 1.250455,2.3728354 1.450988,4.0750404 0.04922,0.417821 0.111473,0.922462 0.138334,1.121424 l 0.04884,0.36175 0.509597,-0.50645 c 0.86947,-0.864101 1.365825,-2.114632 1.45141,-3.6567234 0.0379,-0.682961 -0.01865,-1.31076 -0.167553,-1.85996 -0.08118,-0.299427 0.163569,-0.180145 0.406204,0.197969 0.319552,0.49798 0.57644,1.276154 0.672495,2.037151 0.146389,1.1597584 -0.160429,2.6500724 -0.753956,3.6622124 -0.452498,0.771645 -1.942832,2.111401 -2.352427,2.114746 -0.05603,4.34e-4 -0.09762,-0.300246 -0.127507,-0.921783 z"
         id="path1103" /><path
         style="fill:#303030;stroke-width:0.999999;fill-opacity:1"
         d="M 30.654483,14.611101 C 29.68899,14.383551 28.861253,13.537233 28.4504,12.357537 28.183733,11.59185 28.134759,10.139823 28.345803,9.2563976 c 0.246307,-1.031033 0.648595,-1.796457 1.25188,-2.381926 0.401969,-0.390098 0.640499,-0.474148 0.926253,-0.326379 0.300728,0.155513 0.5191,0.513246 0.440114,0.720991 -0.03267,0.08594 -0.234013,0.399615 -0.447423,0.697065 -0.776487,1.082262 -1.038087,1.9701334 -0.979095,3.3230534 0.03914,0.897681 0.167225,1.393572 0.511815,1.981571 0.635229,1.083936 2.03718,1.192859 2.747905,0.213495 L 33.039383,13.150617 32.871341,12.65393 C 32.592488,11.829709 32.455957,10.962 32.451696,9.986903 c -0.0035,-0.8017244 0.01442,-0.9390014 0.157919,-1.2094434 0.186453,-0.351395 0.342347,-0.454606 0.686655,-0.454606 0.46108,0 0.711111,0.428462 0.757388,1.2978844 0.04713,0.885546 -0.229092,2.471226 -0.594907,3.415063 -0.06381,0.164648 0.359221,0.630399 0.722466,0.795418 1.102959,0.501063 2.235923,-0.342025 2.61393,-1.945129 0.179377,-0.760753 0.104198,-2.25023 -0.154293,-3.0567864 -0.238032,-0.742704 -0.583264,-1.445443 -0.939132,-1.911654 -0.147015,-0.192607 -0.24578,-0.392343 -0.223149,-0.451312 0.06585,-0.171587 0.434961,0.07864 1.090813,0.739456 0.908274,0.915157 1.475042,2.050657 1.630269,3.2661904 0.18761,1.469166 -0.402483,3.066627 -1.377044,3.727829 -1.12625,0.764117 -2.667124,0.555273 -3.3683,-0.456525 -0.108089,-0.155973 -0.216517,-0.283337 -0.240949,-0.283031 -0.02443,2.9e-4 -0.117797,0.129055 -0.207475,0.286107 -0.38945,0.682032 -1.458499,1.075179 -2.351404,0.864737 z"
         id="path1095" /><path
         style="fill:#303030;stroke-width:0.999999;fill-opacity:1"
         d="m 17.724378,14.578865 c -0.138089,-0.06197 -0.312576,-0.168213 -0.387748,-0.236085 -0.309187,-0.279166 -0.653901,-1.203884 -0.807916,-2.167291 -0.02704,-0.169118 -0.07507,-0.307488 -0.106743,-0.307488 -0.03167,0 -0.131142,0.181225 -0.22104,0.402721 -0.371072,0.914261 -1.070646,1.755881 -1.74621,2.100771 -0.530371,0.270766 -1.343574,0.325405 -1.803264,0.121162 -0.950054,-0.422118 -1.422169,-1.288904 -1.493111,-2.741302 -0.08408,-1.721494 0.433318,-3.4785834 1.324218,-4.4970164 0.580531,-0.663634 1.631008,-1.0365 2.299021,-0.816036 0.413786,0.136561 0.866283,0.702568 1.11648,1.39655 0.118284,0.32809 0.238922,0.743037 0.268084,0.922103 0.02916,0.179066 0.07923,0.373701 0.111253,0.432522 0.06969,0.1279964 0.04701,0.1750524 0.679191,-1.409246 l 0.461914,-1.1576 0.728759,-0.0206 0.728759,-0.0206 -0.20583,0.454698 c -0.113207,0.250083 -0.601787,1.31249 -1.085734,2.3609044 l -0.879903,1.906208 0.112096,0.437556 c 0.223326,0.871726 0.644142,1.425876 1.19555,1.574355 0.375657,0.101154 0.583864,0.03938 0.873104,-0.259038 0.131974,-0.136162 0.266123,-0.247567 0.298109,-0.247567 0.111542,0 0.05707,0.648621 -0.08675,1.033024 -0.266082,0.711167 -0.796049,0.995903 -1.372288,0.73729 z m -4.12866,-1.009736 c 0.653033,-0.230404 1.16757,-0.834892 1.749641,-2.055513 0.548224,-1.149641 0.659264,-1.511402 0.619704,-2.01896 -0.04553,-0.5841674 -0.390796,-1.3091864 -0.755969,-1.5874554 -0.365911,-0.278831 -1.044379,-0.279701 -1.580173,-0.002 -0.796031,0.412542 -1.60612,1.6052034 -1.880818,2.7690534 -0.14408,0.610445 -0.154436,1.548541 -0.02199,1.991722 0.10937,0.36596 0.600643,0.90771 0.869371,0.958695 0.356907,0.06772 0.705849,0.04835 1.000233,-0.05552 z"
         id="path1093" /><path
         style="fill:#303030;stroke-width:0.999999;fill-opacity:1"
         d="M 2.697221,14.587665 C 2.419823,14.462829 2.311687,14.278893 2.311687,13.931884 c 0,-0.365314 0.198009,-0.708785 0.786255,-1.363852 0.27961,-0.311371 0.575916,-0.705637 0.658459,-0.876148 C 4.075273,11.033182 4.22412,9.517769 4.032701,8.8788696 3.908336,8.4637766 3.506341,8.0670986 3.107536,7.9659416 2.125897,7.7169486 1.836908,7.3718896 2.132037,6.8011726 c 0.139759,-0.270265 0.451808,-0.431731 0.83436,-0.431731 1.187682,0 1.795897,1.520776 1.499262,3.7487464 -0.05464,0.410422 -0.07818,0.759306 -0.05231,0.775296 0.02587,0.01599 0.45008,-0.466318 0.942682,-1.071797 0.859978,-1.0570384 0.904866,-1.1290884 1.127338,-1.8095114 0.280156,-0.856848 0.537909,-1.315501 0.844259,-1.502298 0.32147,-0.196016 0.715635,-0.182048 0.966983,0.03427 0.172681,0.148613 0.202079,0.226947 0.196853,0.524537 -0.0079,0.44721 -0.235654,0.892667 -0.86096,1.683575 -0.265357,0.335633 -0.563891,0.7709244 -0.663409,0.9673134 -0.37545,0.740914 -0.485273,2.114641 -0.211397,2.644259 0.255589,0.494256 0.876212,0.788185 1.474721,0.698433 0.256125,-0.03841 0.393924,-0.120296 0.674381,-0.400753 0.193866,-0.193865 0.352482,-0.38659 0.352482,-0.428277 0,-0.178742 0.233248,-0.0547 0.329267,0.175106 0.155347,0.371798 0.133791,1.018244 -0.04636,1.390393 -0.50608,1.04542 -2.041927,1.187485 -2.810742,0.259992 C 6.33271,13.580104 6.186032,12.938015 6.189122,11.69343 l 0.0027,-1.078983 -0.384791,0.413399 c -0.532219,0.571789 -1.035582,1.338529 -1.536806,2.34092 -0.233941,0.467856 -0.521047,0.941402 -0.638012,1.052326 -0.255243,0.242057 -0.622032,0.307405 -0.934967,0.166576 z"
         id="path1091" /></g></g></svg>
