<?xml version="1.0" encoding="UTF-8" standalone="no"?>
<!-- Created with Inkscape (http://www.inkscape.org/) -->

<svg
   width="180"
   height="80"
   viewBox="0 0 47.625 21.166666"
   version="1.1"
   id="svg5"
   inkscape:version="1.2.2 (b0a8486541, 2022-12-01, custom)"
   sodipodi:docname="chaos.svg"
   xml:space="preserve"
   xmlns:inkscape="http://www.inkscape.org/namespaces/inkscape"
   xmlns:sodipodi="http://sodipodi.sourceforge.net/DTD/sodipodi-0.dtd"
   xmlns="http://www.w3.org/2000/svg"
   xmlns:svg="http://www.w3.org/2000/svg"><sodipodi:namedview
     id="namedview7"
     pagecolor="#ffffff"
     bordercolor="#666666"
     borderopacity="1.0"
     inkscape:showpageshadow="2"
     inkscape:pageopacity="1"
     inkscape:pagecheckerboard="0"
     inkscape:deskcolor="#d1d1d1"
     inkscape:document-units="mm"
     showgrid="false"
     inkscape:zoom="1.7520641"
     inkscape:cx="195.76909"
     inkscape:cy="45.375052"
     inkscape:window-width="1846"
     inkscape:window-height="1016"
     inkscape:window-x="0"
     inkscape:window-y="0"
     inkscape:window-maximized="1"
     inkscape:current-layer="layer1" /><defs
     id="defs2" /><g
     inkscape:label="Layer 1"
     inkscape:groupmode="layer"
     id="layer1"><rect
       style="fill:#d0d0d0;stroke-width:10.0542;stroke-linecap:square;stroke-miterlimit:3.6;paint-order:markers fill stroke"
       id="rect260"
       width="47.625"
       height="21.166666"
       x="-47.625"
       y="0"
       transform="scale(-1,1)" /><g
       id="g934"><path
         style="fill:#303030;stroke-width:0.999999;fill-opacity:1"
         d="M 8.485917,19.290365 C 8.36654,19.237995 8.207769,19.126609 8.133094,19.042835 8.015082,18.910443 8.007568,18.850002 8.075654,18.580764 8.118734,18.410398 8.839209,16.84015 9.676703,15.091324 l 1.522716,-3.179683 -0.216933,-0.812866 C 10.483515,9.2290796 9.947325,8.0218216 9.490276,7.7389896 9.183139,7.5489266 9.018793,7.5628766 8.625327,7.8124096 8.185766,8.0911706 7.944453,8.1385006 7.63084,8.0074646 7.264955,7.8545876 7.120353,7.6004236 7.166473,7.1912516 c 0.02775,-0.246241 0.09648,-0.391906 0.263866,-0.559295 0.211813,-0.211813 0.259906,-0.226336 0.749482,-0.226336 0.639103,0 0.961985,0.141675 1.443626,0.633438 0.595092,0.607599 1.110182,1.709779 1.607351,3.4393804 l 0.241077,0.838682 0.178993,-0.357602 c 0.09845,-0.196681 0.595593,-1.236653 1.104771,-2.3110504 0.509178,-1.074397 0.991511,-2.026703 1.07185,-2.116236 0.191615,-0.213542 0.534612,-0.211479 0.851737,0.0051 0.191438,0.130756 0.243827,0.214806 0.236755,0.379837 -0.005,0.116559 -0.682288,1.618246 -1.505098,3.3370844 l -1.496018,3.125158 0.331274,1.432888 c 0.567429,2.454348 0.797569,3.053026 1.288749,3.352513 0.336114,0.204938 0.809557,0.188501 1.107088,-0.03844 0.475602,-0.362759 0.909475,-0.383228 1.158862,-0.05467 0.241097,0.317636 0.04835,0.938858 -0.348052,1.121759 -1.028734,0.474664 -2.149659,-0.09439 -2.770725,-1.406607 -0.220632,-0.466161 -0.976572,-3.279841 -0.976572,-3.634895 0,-0.06239 -0.02442,-0.113144 -0.05426,-0.112774 -0.02984,3.62e-4 -0.603498,1.155408 -1.274786,2.566753 -0.671288,1.411345 -1.257323,2.595405 -1.302299,2.631246 -0.160172,0.127638 -0.374323,0.146991 -0.588225,0.05316 z"
         id="path1056" /><path
         style="fill:#303030;stroke-width:0.999999;fill-opacity:1"
         d="m 20.772772,5.5509256 -0.157335,-0.08586 0.48749,-1.519349 c 0.647548,-2.018192 0.71465,-2.134323 1.233248,-2.134323 0.42851,0 0.659295,0.517008 0.430046,0.963393 -0.121405,0.236394 -1.666291,2.676926 -1.757329,2.776138 -0.06079,0.06625 -0.114727,0.06625 -0.23612,0 z"
         id="path1107" /><path
         style="fill:#303030;stroke-width:0.999999;fill-opacity:1"
         d="m 28.852426,14.573839 c -1.03726,-0.277149 -1.835571,-1.199514 -2.216646,-2.561102 -0.09955,-0.355682 -0.130884,-0.71709 -0.128606,-1.483173 0.0027,-0.899265 0.02464,-1.077834 0.195787,-1.5916994 0.358524,-1.076452 1.026128,-1.873541 1.932415,-2.307214 0.429568,-0.205556 0.533031,-0.225034 1.195295,-0.225034 0.672858,0 0.759639,0.01704 1.206196,0.236881 0.584072,0.287538 1.091107,0.815886 1.415679,1.475187 0.361623,0.734559 0.480448,1.3345314 0.477677,2.4118794 -0.0021,0.818688 -0.0273,1.016275 -0.194411,1.525021 -0.229416,0.698403 -0.617574,1.318943 -1.112342,1.778275 -0.425722,0.395231 -0.800219,0.599398 -1.373215,0.748644 -0.510178,0.132886 -0.879383,0.130861 -1.397829,-0.0077 z m 0.672083,-0.858286 c 0.668938,-0.317942 1.379814,-1.193266 1.940125,-2.388938 0.340723,-0.727084 0.643539,-1.849407 0.643539,-2.3851394 0,-1.087848 -0.76111,-1.844983 -1.770521,-1.761274 -0.99963,0.0829 -2.03856,1.352695 -2.687697,3.2849514 -0.35066,1.043791 -0.414491,1.921019 -0.178588,2.454317 0.205877,0.46542 0.332065,0.598366 0.766084,0.807114 0.418628,0.201344 0.847969,0.197665 1.287058,-0.01103 z"
         id="path1089" /><path
         style="fill:#303030;stroke-width:0.999999;fill-opacity:1"
         d="m 23.530096,14.591267 c -0.54201,-0.245289 -0.954121,-1.040935 -1.138107,-2.197299 -0.04602,-0.289262 -0.108572,-0.525931 -0.138998,-0.525931 -0.03043,0 -0.149608,0.207951 -0.264851,0.462114 -0.695925,1.534831 -1.706064,2.335564 -2.866781,2.272489 -0.599008,-0.03255 -0.97062,-0.193697 -1.351329,-0.585992 -0.647718,-0.667429 -0.928129,-1.783292 -0.794473,-3.16151 0.253979,-2.6189434 1.40895,-4.3389204 2.999326,-4.4665804 0.372439,-0.0299 0.512339,-0.0081 0.760641,0.11859 0.545813,0.278453 1.034024,1.154957 1.247394,2.239492 0.04847,0.246385 0.111168,0.46221 0.139321,0.479609 0.02815,0.0174 0.289849,-0.569427 0.581545,-1.30406 l 0.530356,-1.335698 h 0.710994 c 0.391047,0 0.710996,0.01649 0.710996,0.03665 0,0.02016 -0.474282,1.06823 -1.053958,2.329052 -1.010253,2.1973424 -1.052006,2.3065964 -1.006886,2.6346584 0.06288,0.457181 0.394789,1.132267 0.695487,1.414578 0.331011,0.31077 0.77106,0.424604 1.103859,0.285552 0.137633,-0.05751 0.305355,-0.188671 0.372716,-0.291475 0.06736,-0.102805 0.171317,-0.186919 0.231013,-0.186919 0.08969,0 0.09987,0.07224 0.05861,0.416013 -0.06293,0.524345 -0.331235,1.126741 -0.572154,1.284597 -0.252816,0.165651 -0.687476,0.203016 -0.954724,0.08207 z M 19.636298,13.47386 c 0.599108,-0.305642 1.146968,-1.081871 1.76778,-2.504659 0.369376,-0.84654 0.374558,-0.868393 0.342726,-1.445436 -0.03779,-0.6850174 -0.253802,-1.1857394 -0.668677,-1.5500054 -0.313226,-0.275015 -0.5199,-0.333828 -0.981144,-0.279201 -1.02121,0.120948 -1.994765,1.196063 -2.468923,2.7264804 -0.130188,0.420201 -0.168414,0.714017 -0.169434,1.302298 -0.0014,0.78146 0.06528,1.063738 0.347821,1.473518 0.327849,0.475488 1.186117,0.605414 1.829851,0.277005 z"
         id="path1087" /><path
         style="fill:#303030;stroke-width:0.999999;fill-opacity:1"
         d="m 37.173461,16.867584 c -0.71003,-0.253121 -0.912934,-0.698088 -0.50455,-1.106472 0.206476,-0.206476 0.246878,-0.217954 0.669237,-0.190121 0.33287,0.02194 0.620165,0.108551 1.107283,0.333832 0.912179,0.421861 1.241257,0.399969 1.404086,-0.09341 0.157933,-0.478541 -0.06647,-0.932761 -0.593716,-1.20174 -0.159906,-0.08158 -0.751003,-0.246556 -1.313547,-0.366618 -1.20425,-0.257018 -1.916766,-0.560077 -2.417097,-1.028079 -0.859356,-0.803825 -1.108261,-2.194945 -0.640244,-3.578286 0.24357,-0.7199304 0.570145,-1.2445454 1.132116,-1.8186474 0.99945,-1.021025 2.428971,-1.588721 3.569785,-1.417646 0.788806,0.118289 1.174713,1.016191 0.61602,1.433315 -0.150446,0.112324 -0.385718,0.14635 -1.370754,0.198245 -0.851981,0.04488 -1.322473,0.10453 -1.659411,0.210369 -0.817765,0.256876 -1.44685,0.752479 -1.796867,1.4156024 -0.17335,0.32842 -0.192756,0.441667 -0.192756,1.124859 0,0.601953 0.02774,0.810557 0.13361,1.004753 0.360415,0.661096 1.040222,0.973261 2.939339,1.349737 1.51477,0.300284 2.188006,0.895253 2.192665,1.937758 0.0034,0.755628 -0.325314,1.323769 -0.968318,1.673736 -0.344232,0.187354 -0.470265,0.213195 -1.148212,0.235421 -0.617498,0.02024 -0.836651,-0.0018 -1.158669,-0.116608 z"
         id="path1083" /></g></g></svg>
