<?xml version="1.0" encoding="UTF-8" standalone="no"?>
<!-- Created with Inkscape (http://www.inkscape.org/) -->

<svg
   width="445"
   height="120"
   viewBox="0 0 117.73959 31.75"
   version="1.1"
   id="svg5"
   inkscape:version="1.2.2 (732a01da63, 2022-12-09, custom)"
   sodipodi:docname="co-rewrite-promo.svg"
   xmlns:inkscape="http://www.inkscape.org/namespaces/inkscape"
   xmlns:sodipodi="http://sodipodi.sourceforge.net/DTD/sodipodi-0.dtd"
   xmlns="http://www.w3.org/2000/svg"
   xmlns:svg="http://www.w3.org/2000/svg">
  <sodipodi:namedview
     id="namedview7"
     pagecolor="#ffffff"
     bordercolor="#666666"
     borderopacity="1.0"
     inkscape:showpageshadow="2"
     inkscape:pageopacity="0.0"
     inkscape:pagecheckerboard="0"
     inkscape:deskcolor="#d1d1d1"
     inkscape:document-units="px"
     showgrid="false"
     inkscape:zoom="1.9239882"
     inkscape:cx="226.09286"
     inkscape:cy="29.366084"
     inkscape:window-width="1846"
     inkscape:window-height="1016"
     inkscape:window-x="0"
     inkscape:window-y="0"
     inkscape:window-maximized="1"
     inkscape:current-layer="text550" />
  <defs
     id="defs2" />
  <g
     inkscape:label="Layer 1"
     inkscape:groupmode="layer"
     id="layer1">
    <rect
       style="fill:#d0d0d0;fill-opacity:1;stroke:#d0d0d0;stroke-width:0;stroke-linecap:square;stroke-miterlimit:3.6;stroke-dasharray:none;stroke-opacity:1;paint-order:markers fill stroke"
       id="rect3444"
       width="85.989586"
       height="31.75"
       x="31.75"
       y="1.7335293e-06" />
    <rect
       style="fill:#303030;fill-opacity:1;stroke:#d0d0d0;stroke-width:0;stroke-linecap:square;stroke-miterlimit:3.6;stroke-dasharray:none;stroke-opacity:1;paint-order:markers fill stroke"
       id="rect1084"
       width="31.75"
       height="31.75"
       x="1.8037982e-06"
       y="1.7686638e-06" />
    <path
       id="path234"
       style="fill:#d0d0d0;fill-opacity:1;stroke:#d0d0d0;stroke-width:0;stroke-linecap:square;stroke-miterlimit:3.6;paint-order:markers fill stroke"
       d="M 15.875,5.2916667 A 5.2916664,5.2916668 0 0 1 21.166668,10.583333 5.2916664,5.2916668 0 0 1 15.875,15.874999 5.2916664,5.2916668 0 0 1 10.583333,10.583333 5.2916664,5.2916668 0 0 1 15.875,5.2916667 Z m 0,0 A 10.583333,10.583334 0 0 0 5.2916667,15.874999 10.583333,10.583334 0 0 0 15.875,26.458334 10.583333,10.583334 0 0 0 26.458334,15.874999 10.583333,10.583334 0 0 0 15.875,5.2916667 Z" />
    <g
       aria-label="systelog"
       id="text323"
       style="font-size:16.4886px;line-height:1.25;font-family:'New Standard';-inkscape-font-specification:'New Standard';fill:#303030;stroke-width:0.264583">
      <g
         aria-label="co-rewrite"
         id="text550"
         style="font-size:17.3461px;stroke-width:0.0700044">
        <path
           d="m 40.441505,11.65498 c -2.029493,0 -3.399835,1.873379 -3.399835,4.163064 0,2.289685 1.352995,4.163064 3.399835,4.163064 1.821341,0 2.653953,-1.613187 2.740684,-2.914145 h -0.416306 c -0.138769,1.127497 -0.780575,2.497839 -2.324378,2.497839 -1.595841,0 -1.873379,-1.526457 -1.873379,-3.746758 0,-2.220301 0.294884,-3.746757 1.873379,-3.746757 1.248919,0 1.699918,0.780574 1.699918,1.127496 0,0.138769 -0.06938,0.242845 -0.277538,0.31223 -0.277537,0.08673 -0.589767,0.346922 -0.589767,0.79792 0,0.416307 0.346922,0.763229 0.815267,0.763229 0.503037,0 0.954035,-0.381614 0.954035,-1.144843 0,-1.040766 -0.919343,-2.272339 -2.601915,-2.272339 z"
           id="path418" />
        <path
           d="m 48.07377,12.071287 c 1.457073,0 1.942763,1.526456 1.942763,3.746757 0,2.220301 -0.48569,3.746758 -1.942763,3.746758 -1.457072,0 -1.942763,-1.526457 -1.942763,-3.746758 0,-2.220301 0.485691,-3.746757 1.942763,-3.746757 z m 0,-0.416307 c -1.942763,0 -3.46922,1.873379 -3.46922,4.163064 0,2.289685 1.526457,4.163064 3.46922,4.163064 1.942763,0 3.46922,-1.873379 3.46922,-4.163064 0,-2.289685 -1.526457,-4.163064 -3.46922,-4.163064 z"
           id="path420" />
        <path
           d="m 53.416342,15.887429 h 4.336525 v -0.971382 h -4.336525 z"
           id="path422" />
        <path
           d="m 61.811835,11.863133 h -2.35907 v 0.416307 h 0.728536 c 0.277538,0 0.381615,0.104076 0.381615,0.381614 v 6.31398 c 0,0.277538 -0.104077,0.381615 -0.381615,0.381615 h -0.728536 v 0.416306 h 3.46922 v -0.416306 h -0.728536 c -0.277538,0 -0.381614,-0.104077 -0.381614,-0.381615 V 15.74866 c 0,-1.803995 0.988727,-3.607989 2.13357,-3.607989 0.31223,0 0.537729,0.138769 0.537729,0.364268 0,0.190807 -0.173461,0.31223 -0.31223,0.39896 -0.190807,0.138769 -0.346922,0.31223 -0.346922,0.607114 0,0.450998 0.364268,0.676498 0.745883,0.676498 0.641805,0 0.988727,-0.607114 0.988727,-1.127497 0,-0.832612 -0.624459,-1.405034 -1.439726,-1.405034 -0.954035,0 -1.751956,0.763229 -2.237647,1.960109 l -0.06938,-0.01735 z"
           id="path424" />
        <path
           d="m 70.05123,12.071287 c 1.231573,0 1.578495,1.717263 1.578495,3.295759 h -3.365144 c 0,-1.665226 0.572422,-3.295759 1.786649,-3.295759 z m 0.104076,-0.416307 c -2.029493,0 -3.417181,1.890725 -3.417181,4.284487 0,2.463146 1.457072,4.041641 3.503912,4.041641 1.908071,0 2.810068,-1.352996 2.948837,-2.914145 h -0.416307 c -0.190807,1.856033 -1.387688,2.497839 -2.359069,2.497839 -1.595841,0 -2.150917,-1.665226 -2.150917,-3.78145 h 4.319179 c 0.503037,0 0.537729,-0.08673 0.537729,-0.39896 0,-1.526457 -0.780574,-3.729412 -2.966183,-3.729412 z"
           id="path426" />
        <path
           d="m 86.928968,11.863133 h -3.15699 v 0.416307 h 0.416306 c 0.468345,0 0.62446,0.294884 0.62446,0.676498 0,0.138768 -0.08673,0.589767 -0.190807,0.884651 l -1.405035,4.111025 -1.613187,-4.596716 c -0.08673,-0.225499 -0.138769,-0.450999 -0.138769,-0.555075 0,-0.190807 0.03469,-0.520383 0.503037,-0.520383 h 0.693844 V 11.863133 H 78.91507 v 0.416307 h 0.520383 c 0.31223,0 0.468344,0.208153 0.589767,0.485691 0.138769,0.294883 0.225499,0.607113 0.225499,0.79792 0,0.104077 -0.06938,0.450999 -0.121422,0.62446 l -1.179535,3.764103 -1.942763,-4.683447 c -0.104077,-0.277537 -0.104077,-0.39896 -0.104077,-0.503036 0,-0.277538 0.173461,-0.485691 0.503037,-0.485691 h 0.537729 v -0.416307 h -3.746757 v 0.416307 h 0.39896 c 0.624459,0 0.79792,0.364268 1.075458,1.02342 l 2.792722,6.678248 h 0.31223 l 1.803994,-5.689521 2.081532,5.689521 h 0.31223 l 2.35907,-6.678248 c 0.260191,-0.728536 0.728536,-1.02342 1.196881,-1.02342 h 0.39896 z"
           id="path428" />
        <path
           d="m 90.363478,11.863133 h -2.359069 v 0.416307 h 0.728536 c 0.277537,0 0.381614,0.104076 0.381614,0.381614 v 6.31398 c 0,0.277538 -0.104077,0.381615 -0.381614,0.381615 h -0.728536 v 0.416306 h 3.46922 v -0.416306 h -0.728537 c -0.277537,0 -0.381614,-0.104077 -0.381614,-0.381615 V 15.74866 c 0,-1.803995 0.988728,-3.607989 2.13357,-3.607989 0.31223,0 0.53773,0.138769 0.53773,0.364268 0,0.190807 -0.173461,0.31223 -0.31223,0.39896 -0.190807,0.138769 -0.346922,0.31223 -0.346922,0.607114 0,0.450998 0.364268,0.676498 0.745882,0.676498 0.641806,0 0.988728,-0.607114 0.988728,-1.127497 0,-0.832612 -0.62446,-1.405034 -1.439727,-1.405034 -0.954035,0 -1.751956,0.763229 -2.237646,1.960109 l -0.06938,-0.01735 z"
           id="path430" />
        <path
           d="m 96.746842,7.9082226 c -0.520383,0 -0.901997,0.3816142 -0.901997,0.9019972 0,0.520383 0.381614,0.9019972 0.901997,0.9019972 0.520383,0 0.901998,-0.3816142 0.901998,-0.9019972 0,-0.520383 -0.381615,-0.9019972 -0.901998,-0.9019972 z m 0.728537,3.9549104 h -2.35907 v 0.416307 h 0.728536 c 0.277538,0 0.381614,0.104076 0.381614,0.381614 v 6.31398 c 0,0.277538 -0.104076,0.381615 -0.381614,0.381615 h -0.728536 v 0.416306 h 3.46922 v -0.416306 h -0.728536 c -0.277538,0 -0.381614,-0.104077 -0.381614,-0.381615 z"
           id="path432" />
        <path
           d="m 102.1588,8.5326822 h -0.48569 v 0.6244596 c 0,1.2315732 -0.55508,2.7059912 -1.66523,2.7059912 h -0.38161 v 0.485691 h 1.28361 v 5.568098 c 0,1.318304 0.76323,2.064186 1.82134,2.064186 0.78058,0 1.30096,-0.364268 1.59584,-0.954035 0.26019,-0.555076 0.29489,-1.283612 0.29489,-1.751956 v -0.138769 h -0.31223 v 0.173461 c 0,1.040766 -0.26019,2.04684 -1.21423,2.04684 -0.76323,0 -0.93669,-0.589768 -0.93669,-1.179535 v -5.82829 h 2.15092 v -0.485691 h -2.15092 z"
           id="path434" />
        <path
           d="m 109.35741,12.071287 c 1.23157,0 1.57849,1.717263 1.57849,3.295759 h -3.36514 c 0,-1.665226 0.57242,-3.295759 1.78665,-3.295759 z m 0.10407,-0.416307 c -2.02949,0 -3.41718,1.890725 -3.41718,4.284487 0,2.463146 1.45707,4.041641 3.50391,4.041641 1.90807,0 2.81007,-1.352996 2.94884,-2.914145 h -0.41631 c -0.1908,1.856033 -1.38768,2.497839 -2.35907,2.497839 -1.59584,0 -2.15091,-1.665226 -2.15091,-3.78145 h 4.31918 c 0.50303,0 0.53773,-0.08673 0.53773,-0.39896 0,-1.526457 -0.78058,-3.729412 -2.96619,-3.729412 z"
           id="path436" />
      </g>
    </g>
  </g>
</svg>
