<?xml version="1.0" encoding="UTF-8" standalone="no"?>
<!-- Created with Inkscape (http://www.inkscape.org/) -->

<svg
   width="180"
   height="80"
   viewBox="0 0 47.625 21.166666"
   version="1.1"
   id="svg5"
   inkscape:version="1.2.2 (b0a8486541, 2022-12-01, custom)"
   sodipodi:docname="logos.svg"
   xml:space="preserve"
   xmlns:inkscape="http://www.inkscape.org/namespaces/inkscape"
   xmlns:sodipodi="http://sodipodi.sourceforge.net/DTD/sodipodi-0.dtd"
   xmlns="http://www.w3.org/2000/svg"
   xmlns:svg="http://www.w3.org/2000/svg"><sodipodi:namedview
     id="namedview7"
     pagecolor="#ffffff"
     bordercolor="#666666"
     borderopacity="1.0"
     inkscape:showpageshadow="2"
     inkscape:pageopacity="1"
     inkscape:pagecheckerboard="0"
     inkscape:deskcolor="#d1d1d1"
     inkscape:document-units="mm"
     showgrid="false"
     inkscape:zoom="1.7520641"
     inkscape:cx="195.76909"
     inkscape:cy="45.375052"
     inkscape:window-width="1846"
     inkscape:window-height="1016"
     inkscape:window-x="0"
     inkscape:window-y="0"
     inkscape:window-maximized="1"
     inkscape:current-layer="layer1" /><defs
     id="defs2" /><g
     inkscape:label="Layer 1"
     inkscape:groupmode="layer"
     id="layer1"><rect
       style="fill:#d0d0d0;stroke-width:10.0542;stroke-linecap:square;stroke-miterlimit:3.6;paint-order:markers fill stroke"
       id="rect260"
       width="47.625"
       height="21.166666"
       x="-47.625"
       y="-3.5527137e-15"
       transform="scale(-1,1)" /><g
       id="g4231"><path
         style="fill:#303030;stroke-width:0.999999;fill-opacity:1"
         d="m 25.067894,19.287765 c -0.68781,-0.301778 -0.711482,-0.955799 -0.155972,-4.308645 0.246583,-1.488281 0.286708,-1.871206 0.2502,-2.387548 -0.112656,-1.593088 -0.862252,-3.5380074 -1.620038,-4.2033484 -0.356772,-0.31325 -0.663094,-0.42705 -1.149525,-0.42705 -0.519624,0 -0.963397,0.204977 -1.270132,0.586662 -0.124435,0.154846 -0.257993,0.281538 -0.296794,0.281538 -0.103902,0 -0.0049,-0.792515 0.147449,-1.18036 0.209822,-0.534163 0.568287,-0.983495 0.907413,-1.137443 0.36235,-0.164485 0.902139,-0.182147 1.24091,-0.0406 0.55771,0.233027 1.122227,0.930383 1.44213,1.781484 0.215834,0.574243 0.576795,2.0389214 0.730561,2.9644684 0.198427,1.194329 0.237785,1.246521 0.398048,0.527838 0.248811,-1.115792 1.401686,-4.1180004 1.829194,-4.7634194 0.420136,-0.634291 0.971443,-0.797495 1.314946,-0.389265 0.369187,0.438757 0.274951,0.661451 -0.782291,1.848604 -0.981745,1.1023784 -1.663021,2.2267184 -2.088946,3.4474674 -0.222092,0.636534 -0.232597,0.715538 -0.228293,1.716322 0.0037,0.857675 0.04838,1.293274 0.244934,2.387549 0.276152,1.5374 0.322362,2.512323 0.135468,2.857993 -0.244868,0.452883 -0.639516,0.617531 -1.049262,0.437753 z"
         id="path1081" /><path
         style="fill:#303030;stroke-width:0.999999;fill-opacity:1"
         d="m 15.94335,5.5563256 c -0.09118,-0.04391 -0.152434,-0.114964 -0.136126,-0.15789 0.0163,-0.04293 0.217976,-0.680362 0.448172,-1.416523 0.503295,-1.60958 0.622542,-1.900966 0.840366,-2.053537 0.242719,-0.17001 0.605381,-0.148956 0.789352,0.04583 0.297952,0.315454 0.183711,0.619967 -0.833486,2.221687 -0.506493,0.79754 -0.925753,1.447869 -0.931693,1.445176 -0.0059,-0.0027 -0.08541,-0.04082 -0.176585,-0.08474 z"
         id="path1111" /><path
         style="fill:#303030;stroke-width:0.999999;fill-opacity:1"
         d="m 32.912104,14.611141 c -1.083419,-0.255343 -1.914293,-1.178838 -2.307529,-2.564765 -0.194933,-0.68702 -0.231585,-2.062052 -0.07224,-2.710583 0.292974,-1.1924724 1.060969,-2.2199164 2.007798,-2.6861054 0.463025,-0.22798 0.543493,-0.244067 1.220789,-0.244067 0.645673,0 0.774318,0.02274 1.174501,0.207596 1.161621,0.536589 1.87764,1.853407 1.952486,3.5907764 0.04471,1.038015 -0.08109,1.691319 -0.482473,2.505518 -0.704103,1.428253 -2.153699,2.217357 -3.49333,1.90163 z m 0.42151,-0.837699 c 0.464769,-0.156942 1.268895,-0.952461 1.68281,-1.664804 0.869906,-1.497095 1.240975,-3.1943224 0.874848,-4.0014934 -0.19855,-0.437718 -0.328715,-0.570714 -0.754111,-0.770523 -1.098431,-0.515933 -2.164537,0.187482 -3.07318,2.0276844 -0.551574,1.117048 -0.752403,1.8288 -0.757489,2.68461 -0.0033,0.541238 0.02465,0.709073 0.165117,0.994307 0.180962,0.367446 0.451833,0.600735 0.871766,0.750802 0.353437,0.126304 0.568475,0.121835 0.990239,-0.02058 z"
         id="path1101" /><path
         style="fill:#303030;stroke-width:0.999999;fill-opacity:1"
         d="m 15.548117,14.611101 c -1.083419,-0.255303 -1.914293,-1.178798 -2.307529,-2.564725 -0.194933,-0.68702 -0.231585,-2.062052 -0.07224,-2.710583 0.292974,-1.1924724 1.060969,-2.2199164 2.007798,-2.6861054 0.463025,-0.22798 0.543493,-0.244067 1.22079,-0.244067 0.645672,0 0.774318,0.02274 1.1745,0.207596 1.161622,0.536589 1.87764,1.853407 1.952486,3.5907764 0.04471,1.038015 -0.08109,1.691319 -0.482473,2.505518 -0.704102,1.428253 -2.153698,2.217357 -3.49333,1.90163 z m 0.421511,-0.837659 c 0.464769,-0.156942 1.268895,-0.952461 1.682809,-1.664804 0.869907,-1.497095 1.240975,-3.1943224 0.874848,-4.0014934 -0.19855,-0.437718 -0.328715,-0.570714 -0.754111,-0.770523 -1.098431,-0.515933 -2.164536,0.187482 -3.073179,2.0276844 -0.551575,1.117048 -0.752404,1.8288 -0.75749,2.68461 -0.0033,0.541238 0.02465,0.709073 0.165117,0.994307 0.180962,0.367446 0.451833,0.600735 0.871766,0.750802 0.353437,0.126304 0.568476,0.121835 0.99024,-0.02058 z"
         id="path1099" /><path
         style="fill:#303030;stroke-width:0.999999;fill-opacity:1"
         d="M 10.042959,14.584121 C 9.579731,14.418994 9.245453,14.073333 8.885591,13.38739 8.456903,12.570259 8.174428,11.579541 7.823205,9.661369 7.699334,8.9848966 7.573482,8.4062836 7.543522,8.3755606 7.513572,8.3448406 6.840251,9.703428 6.047267,11.394648 l -1.441783,3.074945 -0.705412,0.0015 c -0.387976,8.39e-4 -0.705412,-0.02249 -0.705412,-0.05185 0,-0.02935 0.881831,-1.886154 1.959628,-4.126223 L 7.113915,6.2201636 6.924163,5.5586426 C 6.408561,3.7611646 5.411354,2.8624806 4.4009,3.2846746 4.116406,3.4035426 3.952172,3.6380306 3.839219,4.0865996 3.792369,4.2726386 3.718713,4.4101376 3.673697,4.3955786 3.629087,4.3811486 3.546578,4.1777736 3.49034,3.9436316 3.298743,3.1458636 3.611722,2.3343726 4.225625,2.0371866 c 0.646614,-0.313018 1.400652,-0.135039 1.90559,0.449782 0.753112,0.872254 1.212353,2.367102 2.049717,6.671975 0.546068,2.8072724 0.844099,3.5570434 1.587546,3.9938624 0.234978,0.138062 0.419709,0.18615 0.723499,0.18833 0.694668,0.005 1.029714,-0.277936 1.139078,-0.961876 0.05818,-0.363884 0.177149,-0.348822 0.29361,0.03718 0.210756,0.69852 0.07524,1.373159 -0.364065,1.81247 -0.434772,0.43477 -0.953811,0.556256 -1.517641,0.355222 z"
         id="path1097" /><path
         style="fill:#303030;stroke-width:0.999999;fill-opacity:1"
         d="m 41.116628,16.870284 c -0.50598,-0.179808 -0.69069,-0.368396 -0.69069,-0.705198 0,-0.201355 0.0495,-0.306818 0.20823,-0.443316 0.30633,-0.263501 0.88878,-0.209964 1.69264,0.155586 0.76775,0.349128 1.0718,0.395598 1.31259,0.200615 0.15207,-0.123134 0.17976,-0.206943 0.17976,-0.544045 0,-0.325156 -0.0333,-0.434143 -0.18088,-0.592233 -0.28462,-0.304876 -0.67938,-0.469038 -1.58407,-0.658748 -1.12755,-0.236442 -1.65388,-0.417699 -2.1568,-0.742757 -0.73152,-0.472802 -1.103912,-1.064591 -1.250095,-1.98659 -0.202305,-1.276043 0.296642,-2.6793614 1.323315,-3.7218744 0.8819,-0.895497 1.87164,-1.379063 2.95562,-1.444048 0.54327,-0.03257 0.66966,-0.01664 0.95191,0.12 0.63005,0.305002 0.75188,1.128339 0.20433,1.380893 -0.10504,0.04845 -0.7119,0.114811 -1.34858,0.147469 -1.62394,0.0833 -2.33763,0.333574 -2.99983,1.051979 -0.39767,0.4314174 -0.595126,0.8917374 -0.637689,1.4865944 -0.05235,0.731729 0.0824,1.174563 0.481889,1.583623 0.40954,0.419348 0.80324,0.574291 2.29871,0.904665 1.09231,0.241313 1.51286,0.398914 1.96092,0.734862 0.49272,0.369432 0.70248,1.14252 0.49883,1.838472 -0.14567,0.497788 -0.43492,0.846388 -0.92596,1.11593 -0.34815,0.191108 -0.46457,0.214879 -1.14715,0.234231 -0.60298,0.0171 -0.83956,-0.0069 -1.147,-0.11611 z"
         id="path1085" /></g></g></svg>
