<?xml version="1.0" encoding="UTF-8" standalone="no"?>
<!-- Created with Inkscape (http://www.inkscape.org/) -->

<svg
   width="860"
   height="240"
   viewBox="0 0 227.54167 63.5"
   version="1.1"
   id="svg5"
   inkscape:version="1.2.2 (b0a8486541, 2022-12-01, custom)"
   sodipodi:docname="systemath-promo.svg"
   xmlns:inkscape="http://www.inkscape.org/namespaces/inkscape"
   xmlns:sodipodi="http://sodipodi.sourceforge.net/DTD/sodipodi-0.dtd"
   xmlns="http://www.w3.org/2000/svg"
   xmlns:svg="http://www.w3.org/2000/svg">
  <sodipodi:namedview
     id="namedview7"
     pagecolor="#ffffff"
     bordercolor="#666666"
     borderopacity="1.0"
     inkscape:showpageshadow="2"
     inkscape:pageopacity="0.0"
     inkscape:pagecheckerboard="0"
     inkscape:deskcolor="#d1d1d1"
     inkscape:document-units="px"
     showgrid="false"
     inkscape:zoom="1.0688073"
     inkscape:cx="524.41633"
     inkscape:cy="122.09872"
     inkscape:window-width="1846"
     inkscape:window-height="1016"
     inkscape:window-x="0"
     inkscape:window-y="0"
     inkscape:window-maximized="1"
     inkscape:current-layer="layer1" />
  <defs
     id="defs2" />
  <g
     inkscape:label="Layer 1"
     inkscape:groupmode="layer"
     id="layer1">
    <rect
       style="fill:#d0d0d0;fill-opacity:1;stroke:#d0d0d0;stroke-width:0;stroke-linecap:square;stroke-miterlimit:3.6;stroke-dasharray:none;stroke-opacity:1;paint-order:markers fill stroke"
       id="rect3444"
       width="164.04167"
       height="63.5"
       x="63.5"
       y="1.9835293e-06" />
    <rect
       style="fill:#303030;fill-opacity:1;stroke:#d0d0d0;stroke-width:0;stroke-linecap:square;stroke-miterlimit:3.6;stroke-dasharray:none;stroke-opacity:1;paint-order:markers fill stroke"
       id="rect1084"
       width="63.5"
       height="63.5"
       x="2.0537982e-06"
       y="2.0537982e-06" />
    <path
       id="path263"
       style="fill:#d0d0d0;fill-opacity:1;stroke:#d0d0d0;stroke-width:0;stroke-linecap:square;stroke-miterlimit:3.6;stroke-dasharray:none;stroke-opacity:1;paint-order:markers fill stroke"
       d="M 45.802915,15.793038 A 21.261572,21.261572 0 0 1 31.750002,21.117082 21.261572,21.261572 0 0 1 17.707294,15.801689 21.261572,21.261572 0 0 0 10.48843,31.747868 21.261572,21.261572 0 0 0 17.707294,47.694047 21.261572,21.261572 0 0 1 31.750002,42.378654 21.261572,21.261572 0 0 1 45.802915,47.685396 21.261572,21.261572 0 0 0 53.011577,31.747868 21.261572,21.261572 0 0 0 45.802915,15.793038 Z" />
    <g
       aria-label="systemath"
       id="text2614"
       style="font-size:33.4211px;line-height:1.25;font-family:'New Standard';-inkscape-font-specification:'New Standard';fill:#303030;stroke-width:2.08882">
      <path
         d="m 78.561768,24.029724 c -2.406319,0 -4.478427,1.270002 -4.478427,4.110796 0,2.306055 1.737897,3.542636 3.876848,4.411585 l 3.810005,1.53737 c 1.169739,0.467896 2.138951,1.270002 2.138951,2.606846 0,1.437108 -0.935791,2.573425 -3.041321,2.573425 -2.172371,0 -3.676321,-1.403686 -4.678954,-3.175005 -0.501316,-0.868948 -0.835527,-1.771318 -1.23658,-2.640266 h -0.60158 v 6.617377 h 0.60158 l 0.133684,-0.668422 c 0.133684,-0.668422 0.467895,-1.136317 1.102896,-1.136317 0.367632,0 0.735265,0.267369 1.136318,0.568159 0.701843,0.534737 1.637634,1.23658 3.509215,1.23658 2.540004,0 4.578691,-1.370265 4.578691,-4.2779 0,-2.372899 -1.470528,-3.676321 -3.408952,-4.478428 l -3.375531,-1.370265 c -1.470529,-0.60158 -2.941057,-1.336844 -2.941057,-2.773951 0,-1.50395 1.236581,-2.339477 2.840793,-2.339477 1.270002,0 3.375532,0.601579 4.511849,3.442373 l 0.467895,1.169738 h 0.60158 v -5.080007 h -0.60158 l -0.06684,0.668422 c -0.03342,0.367632 -0.200526,0.60158 -0.534737,0.60158 -0.267369,0 -0.60158,-0.167106 -1.102897,-0.534738 -0.60158,-0.434474 -1.804739,-1.069475 -3.241847,-1.069475 z"
         style="stroke-width:2.08881"
         id="path376" />
      <path
         d="m 103.76121,24.430777 h -6.082636 v 0.802107 h 0.802107 c 0.735264,0 1.203159,0.568158 1.203159,1.303423 0,0.267369 -0.200526,1.136317 -0.367632,1.704476 l -2.773951,9.157381 -3.475795,-10.260277 c -0.200526,-0.534738 -0.200526,-0.90237 -0.200526,-1.102897 0,-0.534737 0.60158,-0.802106 1.069475,-0.802106 h 1.069475 v -0.802107 h -7.553168 v 0.802107 h 1.102896 c 1.203159,0 1.53737,0.768685 1.971845,1.971845 l 4.745796,13.802914 -0.90237,2.907636 c -0.367632,1.20316 -1.23658,2.640267 -2.673688,2.640267 -0.60158,0 -0.701843,-0.267369 -0.701843,-0.534738 0,-0.534737 0.467896,-0.802106 0.467896,-1.570791 0,-0.768686 -0.434475,-1.671055 -1.50395,-1.671055 -1.136317,0 -1.704476,1.002633 -1.704476,1.971845 0,0.835527 0.434474,1.53737 0.935791,2.038687 0.568158,0.568158 1.270002,0.835527 2.13895,0.835527 2.306056,0 3.542637,-1.971845 3.977111,-3.308689 l 5.380794,-17.111603 c 0.43448,-1.403687 1.40369,-1.971845 2.30606,-1.971845 h 0.76868 z"
         style="stroke-width:2.08881"
         id="path378" />
      <path
         d="m 110.7796,24.029724 c -2.40632,0 -4.47842,1.270002 -4.47842,4.110796 0,2.306055 1.73789,3.542636 3.87684,4.411585 l 3.81001,1.53737 c 1.16974,0.467896 2.13895,1.270002 2.13895,2.606846 0,1.437108 -0.93579,2.573425 -3.04132,2.573425 -2.17237,0 -3.67632,-1.403686 -4.67896,-3.175005 -0.50131,-0.868948 -0.83552,-1.771318 -1.23658,-2.640266 h -0.60158 v 6.617377 h 0.60158 l 0.13369,-0.668422 c 0.13368,-0.668422 0.46789,-1.136317 1.10289,-1.136317 0.36764,0 0.73527,0.267369 1.13632,0.568159 0.70185,0.534737 1.63764,1.23658 3.50922,1.23658 2.54,0 4.57869,-1.370265 4.57869,-4.2779 0,-2.372899 -1.47053,-3.676321 -3.40895,-4.478428 l -3.37553,-1.370265 c -1.47053,-0.60158 -2.94106,-1.336844 -2.94106,-2.773951 0,-1.50395 1.23658,-2.339477 2.84079,-2.339477 1.27,0 3.37553,0.601579 4.51185,3.442373 l 0.4679,1.169738 h 0.60158 v -5.080007 h -0.60158 l -0.0669,0.668422 c -0.0334,0.367632 -0.20052,0.60158 -0.53473,0.60158 -0.26737,0 -0.60158,-0.167106 -1.1029,-0.534738 -0.60158,-0.434474 -1.80474,-1.069475 -3.24185,-1.069475 z"
         style="stroke-width:2.08881"
         id="path380" />
      <path
         d="m 124.88325,18.013926 h -0.9358 v 1.20316 c 0,2.372898 -1.06947,5.213691 -3.20842,5.213691 h -0.73527 v 0.935791 h 2.47317 v 10.728173 c 0,2.540004 1.47052,3.977111 3.50921,3.977111 1.50395,0 2.50658,-0.701843 3.07474,-1.83816 0.50132,-1.069475 0.56816,-2.473162 0.56816,-3.375531 v -0.267369 h -0.60158 v 0.334211 c 0,2.005266 -0.50131,3.94369 -2.33947,3.94369 -1.47053,0 -1.80474,-1.136318 -1.80474,-2.272635 v -11.22949 h 4.14421 v -0.935791 h -4.14421 z"
         style="stroke-width:2.08881"
         id="path382" />
      <path
         d="m 138.75295,24.831831 c 2.3729,0 3.04132,3.308689 3.04132,6.350009 h -6.48369 c 0,-3.208426 1.10289,-6.350009 3.44237,-6.350009 z m 0.20053,-0.802107 c -3.91027,0 -6.58396,3.6429 -6.58396,8.255012 0,4.745796 2.80737,7.787116 6.75106,7.787116 3.67632,0 5.41422,-2.606845 5.68159,-5.614744 h -0.80211 c -0.36763,3.576057 -2.67368,4.812638 -4.54527,4.812638 -3.07474,0 -4.14421,-3.208426 -4.14421,-7.2858 h 8.32185 c 0.96921,0 1.03606,-0.167105 1.03606,-0.768685 0,-2.941057 -1.50395,-7.185537 -5.71501,-7.185537 z"
         style="stroke-width:2.08881"
         id="path384" />
      <path
         d="m 151.95426,24.430777 h -4.54527 v 0.802107 h 1.40368 c 0.53474,0 0.73527,0.200526 0.73527,0.735264 v 12.165281 c 0,0.534737 -0.20053,0.735264 -0.73527,0.735264 h -1.40368 v 0.802106 h 6.68422 v -0.802106 h -1.40369 c -0.53474,0 -0.73526,-0.200527 -0.73526,-0.735264 v -7.152116 c 0,-3.509215 1.87158,-6.015798 3.87684,-6.015798 1.7379,0 2.47317,1.771318 2.47317,3.375531 v 9.792383 c 0,0.534737 -0.20053,0.735264 -0.73527,0.735264 h -1.40369 v 0.802106 h 6.68422 v -0.802106 h -1.40368 c -0.53474,0 -0.73527,-0.200527 -0.73527,-0.735264 v -7.152116 c 0,-3.509215 1.87159,-6.015798 3.87685,-6.015798 1.7379,0 2.47316,1.771318 2.47316,3.375531 v 9.792383 c 0,0.534737 -0.20052,0.735264 -0.73526,0.735264 h -1.40369 v 0.802106 h 6.68422 v -0.802106 h -1.40368 c -0.53474,0 -0.73527,-0.200527 -0.73527,-0.735264 v -8.622644 c 0,-2.339477 -0.86895,-5.481061 -4.47842,-5.481061 -2.30606,0 -3.87685,2.10553 -4.34475,3.609479 h -0.13368 c -0.33421,-1.437107 -1.27,-3.609479 -4.21106,-3.609479 -1.63763,0 -3.24185,1.002633 -4.21106,3.108163 l -0.13368,-0.03342 z"
         style="stroke-width:2.08881"
         id="path386" />
      <path
         d="m 182.96899,31.48263 v 3.175004 c -0.60158,1.637634 -1.60421,4.211059 -3.87685,4.211059 -0.76868,0 -2.0721,-0.30079 -2.0721,-2.640267 0,-2.43974 1.30342,-3.743163 3.47579,-4.211059 z m 0,-0.701844 -3.07474,0.568159 c -2.27263,0.434475 -5.68159,1.236581 -5.68159,4.779218 0,3.275267 2.47317,3.943689 4.34475,3.943689 2.23921,0 3.74316,-2.072108 4.24448,-3.275267 l 0.1671,0.06684 c 0.0668,1.938424 0.96921,3.208425 2.94106,3.208425 2.23921,0 2.67369,-2.606845 2.67369,-4.745796 h -0.60158 c 0,1.637634 -0.36764,3.34211 -1.57079,3.34211 -0.73527,0 -1.03606,-0.568158 -1.03606,-1.671055 V 28.77552 c 0,-3.542636 -2.77395,-4.745796 -5.34737,-4.745796 -2.23922,0 -4.7458,1.336844 -4.7458,3.94369 0,1.537371 1.06947,2.205793 1.93842,2.205793 0.73527,0 1.47053,-0.30079 1.47053,-1.303423 0,-0.768686 -0.46789,-1.102897 -1.23658,-1.303423 -0.4679,-0.133685 -0.60158,-0.401053 -0.60158,-0.835528 0,-1.002633 1.50395,-1.905002 3.0079,-1.905002 1.77132,0 3.10816,0.768685 3.10816,3.108162 z"
         style="stroke-width:2.08881"
         id="path388" />
      <path
         d="m 195.00057,18.013926 h -0.93579 v 1.20316 c 0,2.372898 -1.06947,5.213691 -3.20842,5.213691 h -0.73527 v 0.935791 h 2.47316 v 10.728173 c 0,2.540004 1.47053,3.977111 3.50922,3.977111 1.50395,0 2.50658,-0.701843 3.07474,-1.83816 0.50132,-1.069475 0.56816,-2.473162 0.56816,-3.375531 v -0.267369 h -0.60158 v 0.334211 c 0,2.005266 -0.50132,3.94369 -2.33948,3.94369 -1.47052,0 -1.80474,-1.136318 -1.80474,-2.272635 v -11.22949 h 4.14422 v -0.935791 h -4.14422 z"
         style="stroke-width:2.08881"
         id="path390" />
      <path
         d="m 206.83159,15.874976 h -5.01317 v 0.802106 H 203.69 c 0.53474,0 0.73527,0.200527 0.73527,0.735264 v 20.721083 c 0,0.534737 -0.20053,0.735264 -0.73527,0.735264 h -1.87158 v 0.802106 h 7.15212 v -0.802106 h -1.40369 c -0.53474,0 -0.73526,-0.200527 -0.73526,-0.735264 v -7.018432 c 0,-3.475794 1.67105,-6.149482 4.04395,-6.149482 2.07211,0 2.57342,1.938424 2.57342,3.542637 v 9.625277 c 0,0.534737 -0.20052,0.735264 -0.73526,0.735264 h -1.40369 v 0.802106 h 6.68422 v -0.802106 h -1.40368 c -0.53474,0 -0.73527,-0.200527 -0.73527,-0.735264 v -8.990276 c 0,-2.339477 -0.90237,-5.113429 -4.47843,-5.113429 -1.77131,0 -3.37553,0.90237 -4.41158,3.108163 l -0.13368,-0.03342 z"
         style="stroke-width:2.08881"
         id="path392" />
    </g>
  </g>
</svg>
