<?xml version="1.0" encoding="UTF-8" standalone="no"?>
<!-- Created with Inkscape (http://www.inkscape.org/) -->

<svg
   width="375"
   height="120"
   viewBox="0 0 99.218756 31.75"
   version="1.1"
   id="svg5"
   inkscape:version="1.2.2 (b0a8486541, 2022-12-01, custom)"
   sodipodi:docname="systelog-promo.svg"
   xmlns:inkscape="http://www.inkscape.org/namespaces/inkscape"
   xmlns:sodipodi="http://sodipodi.sourceforge.net/DTD/sodipodi-0.dtd"
   xmlns="http://www.w3.org/2000/svg"
   xmlns:svg="http://www.w3.org/2000/svg">
  <sodipodi:namedview
     id="namedview7"
     pagecolor="#ffffff"
     bordercolor="#666666"
     borderopacity="1.0"
     inkscape:showpageshadow="2"
     inkscape:pageopacity="0.0"
     inkscape:pagecheckerboard="0"
     inkscape:deskcolor="#d1d1d1"
     inkscape:document-units="px"
     showgrid="false"
     inkscape:zoom="2.7209302"
     inkscape:cx="214.0812"
     inkscape:cy="60.824787"
     inkscape:window-width="1846"
     inkscape:window-height="1016"
     inkscape:window-x="0"
     inkscape:window-y="0"
     inkscape:window-maximized="1"
     inkscape:current-layer="text323" />
  <defs
     id="defs2" />
  <g
     inkscape:label="Layer 1"
     inkscape:groupmode="layer"
     id="layer1">
    <rect
       style="fill:#d0d0d0;fill-opacity:1;stroke:#d0d0d0;stroke-width:0;stroke-linecap:square;stroke-miterlimit:3.6;stroke-dasharray:none;stroke-opacity:1;paint-order:markers fill stroke"
       id="rect3444"
       width="67.46875"
       height="31.75"
       x="31.75"
       y="1.7335293e-06" />
    <rect
       style="fill:#303030;fill-opacity:1;stroke:#d0d0d0;stroke-width:0;stroke-linecap:square;stroke-miterlimit:3.6;stroke-dasharray:none;stroke-opacity:1;paint-order:markers fill stroke"
       id="rect1084"
       width="31.75"
       height="31.75"
       x="1.8037982e-06"
       y="1.7686638e-06" />
    <path
       id="path234"
       style="fill:#d0d0d0;fill-opacity:1;stroke:#d0d0d0;stroke-width:0;stroke-linecap:square;stroke-miterlimit:3.6;paint-order:markers fill stroke"
       d="M 15.875,5.2916667 A 5.2916664,5.2916668 0 0 1 21.166668,10.583333 5.2916664,5.2916668 0 0 1 15.875,15.874999 5.2916664,5.2916668 0 0 1 10.583333,10.583333 5.2916664,5.2916668 0 0 1 15.875,5.2916667 Z m 0,0 A 10.583333,10.583334 0 0 0 5.2916667,15.874999 10.583333,10.583334 0 0 0 15.875,26.458334 10.583333,10.583334 0 0 0 26.458334,15.874999 10.583333,10.583334 0 0 0 15.875,5.2916667 Z" />
    <g
       aria-label="systelog"
       id="text323"
       style="font-size:16.4886px;line-height:1.25;font-family:'New Standard';-inkscape-font-specification:'New Standard';fill:#303030;stroke-width:0.264583">
      <path
         d="m 39.251141,12.097949 c -1.187179,0 -2.209472,0.626566 -2.209472,2.028097 0,1.137714 0.857407,1.747792 1.912677,2.176496 l 1.8797,0.758475 c 0.577101,0.230841 1.055271,0.626567 1.055271,1.286111 0,0.70901 -0.461681,1.269622 -1.500463,1.269622 -1.071759,0 -1.813746,-0.692521 -2.308404,-1.566417 -0.247329,-0.428703 -0.412215,-0.873896 -0.610078,-1.302599 h -0.296795 v 3.264743 h 0.296795 l 0.06596,-0.329772 c 0.06595,-0.329772 0.23084,-0.560613 0.544123,-0.560613 0.181375,0 0.362749,0.131909 0.560613,0.280306 0.34626,0.263818 0.807941,0.610079 1.731303,0.610079 1.253133,0 2.258938,-0.676033 2.258938,-2.110541 0,-1.170691 -0.725499,-1.813746 -1.681837,-2.209473 l -1.665349,-0.676032 c -0.725498,-0.296795 -1.450997,-0.659544 -1.450997,-1.368554 0,-0.741987 0.610078,-1.154202 1.401531,-1.154202 0.626567,0 1.665349,0.296795 2.225961,1.698326 l 0.230841,0.577101 h 0.296794 v -2.506267 h -0.296794 l -0.03298,0.329772 c -0.01649,0.181374 -0.09893,0.296794 -0.263817,0.296794 -0.131909,0 -0.296795,-0.08244 -0.544124,-0.263817 -0.296795,-0.214352 -0.890384,-0.527635 -1.599394,-0.527635 z"
         id="path2444" />
      <path
         d="m 51.683514,12.295812 h -3.000925 v 0.395726 h 0.395726 c 0.362749,0 0.59359,0.280306 0.59359,0.643056 0,0.131908 -0.09893,0.560612 -0.181375,0.840918 l -1.368554,4.517877 -1.714814,-5.062001 c -0.09893,-0.263817 -0.09893,-0.445192 -0.09893,-0.544123 0,-0.263818 0.296795,-0.395727 0.527636,-0.395727 h 0.527635 v -0.395726 h -3.726424 v 0.395726 h 0.544124 c 0.59359,0 0.758476,0.379238 0.972827,0.972828 l 2.341382,6.809791 -0.445193,1.434509 c -0.181374,0.593589 -0.610078,1.302599 -1.319088,1.302599 -0.296794,0 -0.34626,-0.131909 -0.34626,-0.263818 0,-0.263817 0.23084,-0.395726 0.23084,-0.774964 0,-0.379238 -0.214352,-0.82443 -0.741987,-0.82443 -0.560612,0 -0.840918,0.494658 -0.840918,0.972828 0,0.412215 0.214351,0.758475 0.46168,1.005804 0.280307,0.280306 0.626567,0.412215 1.055271,0.412215 1.137713,0 1.747791,-0.972827 1.962143,-1.632371 l 2.654665,-8.442163 c 0.214352,-0.692522 0.692521,-0.972828 1.137713,-0.972828 h 0.379238 z"
         id="path2446" />
      <path
         d="m 55.146099,12.097949 c -1.187179,0 -2.209472,0.626566 -2.209472,2.028097 0,1.137714 0.857407,1.747792 1.912678,2.176496 l 1.8797,0.758475 c 0.577101,0.230841 1.05527,0.626567 1.05527,1.286111 0,0.70901 -0.46168,1.269622 -1.500462,1.269622 -1.071759,0 -1.813746,-0.692521 -2.308404,-1.566417 -0.247329,-0.428703 -0.412215,-0.873896 -0.610078,-1.302599 h -0.296795 v 3.264743 h 0.296795 l 0.06595,-0.329772 c 0.06595,-0.329772 0.23084,-0.560613 0.544124,-0.560613 0.181374,0 0.362749,0.131909 0.560612,0.280306 0.346261,0.263818 0.807942,0.610079 1.731303,0.610079 1.253134,0 2.258938,-0.676033 2.258938,-2.110541 0,-1.170691 -0.725498,-1.813746 -1.681837,-2.209473 l -1.665348,-0.676032 c -0.725499,-0.296795 -1.450997,-0.659544 -1.450997,-1.368554 0,-0.741987 0.610078,-1.154202 1.401531,-1.154202 0.626567,0 1.665348,0.296795 2.225961,1.698326 l 0.23084,0.577101 h 0.296795 v -2.506267 h -0.296795 l -0.03298,0.329772 c -0.01649,0.181374 -0.09893,0.296794 -0.263818,0.296794 -0.131908,0 -0.296794,-0.08244 -0.544123,-0.263817 -0.296795,-0.214352 -0.890385,-0.527635 -1.599395,-0.527635 z"
         id="path2448" />
      <path
         d="m 62.104257,9.1300007 h -0.46168 v 0.5935896 c 0,1.1706907 -0.527636,2.5722217 -1.582906,2.5722217 h -0.362749 v 0.461681 h 1.220156 v 5.29284 c 0,1.253134 0.725499,1.962144 1.731303,1.962144 0.741987,0 1.236645,-0.346261 1.516951,-0.906873 0.247329,-0.527636 0.280306,-1.220157 0.280306,-1.665349 v -0.131909 h -0.296794 v 0.164886 c 0,0.989316 -0.247329,1.945655 -1.154202,1.945655 -0.725499,0 -0.890385,-0.560612 -0.890385,-1.121225 v -5.540169 h 2.044587 v -0.461681 h -2.044587 z"
         id="path2450" />
      <path
         d="m 68.947001,12.493675 c 1.170691,0 1.500463,1.632371 1.500463,3.132834 h -3.198789 c 0,-1.582906 0.544124,-3.132834 1.698326,-3.132834 z m 0.09893,-0.395726 c -1.929167,0 -3.248255,1.797257 -3.248255,4.072684 0,2.341381 1.385043,3.841844 3.330698,3.841844 1.813746,0 2.671153,-1.286111 2.803061,-2.770085 h -0.395726 c -0.181374,1.76428 -1.319088,2.374358 -2.242449,2.374358 -1.516952,0 -2.044587,-1.582905 -2.044587,-3.594515 h 4.105662 c 0.478169,0 0.511146,-0.08244 0.511146,-0.379237 0,-1.450997 -0.741987,-3.545049 -2.81955,-3.545049 z"
         id="path2452" />
      <path
         d="m 75.459982,8.0747303 h -2.407336 v 0.3957264 h 0.857407 c 0.263818,0 0.362749,0.098932 0.362749,0.3627492 V 19.056138 c 0,0.263817 -0.09893,0.362749 -0.362749,0.362749 h -0.857407 v 0.395726 h 3.627492 v -0.395726 h -0.857407 c -0.263818,0 -0.362749,-0.09893 -0.362749,-0.362749 z"
         id="path2454" />
      <path
         d="m 81.132038,12.493675 c 1.385043,0 1.846724,1.450997 1.846724,3.561538 0,2.11054 -0.461681,3.561537 -1.846724,3.561537 -1.385042,0 -1.846723,-1.450997 -1.846723,-3.561537 0,-2.110541 0.461681,-3.561538 1.846723,-3.561538 z m 0,-0.395726 c -1.846723,0 -3.297719,1.780768 -3.297719,3.957264 0,2.176495 1.450996,3.957264 3.297719,3.957264 1.846724,0 3.29772,-1.780769 3.29772,-3.957264 0,-2.176496 -1.450996,-3.957264 -3.29772,-3.957264 z"
         id="path2456" />
      <path
         d="m 89.310357,12.097949 c -1.780769,0 -2.934971,1.203667 -2.934971,2.70413 0,1.104736 0.626567,2.044586 1.665348,2.47329 v 0.06595 c -0.890384,0.148398 -1.797257,0.610079 -1.797257,1.582906 0,0.758476 0.725498,1.137713 1.450997,1.220156 v 0.06595 c -0.857407,0.131909 -1.615883,0.791453 -1.615883,1.615883 0,1.450996 1.599394,1.912677 3.396652,1.912677 2.077563,0 3.726423,-0.807941 3.726423,-2.539244 0,-1.335577 -0.890384,-2.044587 -2.621687,-2.044587 h -1.813746 c -0.857407,0 -1.863212,-0.08244 -1.863212,-0.676032 0,-0.626567 1.302599,-0.972828 2.407336,-0.972828 1.780768,0 2.93497,-1.203667 2.93497,-2.70413 0,-0.560612 -0.164886,-1.088248 -0.461681,-1.516951 0.04947,-0.395727 0.395727,-0.791453 0.82443,-0.791453 0.197864,0 0.428704,0.08244 0.428704,0.263818 0,0.164886 -0.04947,0.214351 -0.181375,0.296794 -0.164886,0.09893 -0.280306,0.280307 -0.280306,0.527636 0,0.445192 0.362749,0.593589 0.659544,0.593589 0.428704,0 0.692521,-0.379238 0.692521,-0.890384 0,-0.70901 -0.544123,-1.187179 -1.28611,-1.187179 -0.395727,0 -0.923362,0.247329 -1.137714,0.857407 -0.511146,-0.527635 -1.269622,-0.857407 -2.192983,-0.857407 z m 0.23084,11.245225 c -1.253134,0 -2.737108,-0.461681 -2.737108,-1.582906 0,-1.187179 1.450997,-1.516951 2.605199,-1.516951 h 1.53344 c 1.236645,0 1.665348,0.676033 1.665348,1.286111 0,1.385042 -1.863211,1.813746 -3.066879,1.813746 z m -0.23084,-10.849499 c 1.05527,0 1.615882,1.038782 1.615882,2.308404 0,1.269622 -0.560612,2.308404 -1.615882,2.308404 -1.055271,0 -1.615883,-1.038782 -1.615883,-2.308404 0,-1.269622 0.560612,-2.308404 1.615883,-2.308404 z"
         id="path2458" />
    </g>
  </g>
</svg>
