<?xml version="1.0" encoding="UTF-8" standalone="no"?>
<!-- Created with Inkscape (http://www.inkscape.org/) -->

<svg
   width="480"
   height="480"
   viewBox="0 0 127 127"
   version="1.1"
   id="svg5"
   inkscape:version="1.2.2 (b0a8486541, 2022-12-01, custom)"
   sodipodi:docname="systemath-logo.svg"
   xmlns:inkscape="http://www.inkscape.org/namespaces/inkscape"
   xmlns:sodipodi="http://sodipodi.sourceforge.net/DTD/sodipodi-0.dtd"
   xmlns="http://www.w3.org/2000/svg"
   xmlns:svg="http://www.w3.org/2000/svg">
  <sodipodi:namedview
     id="namedview7"
     pagecolor="#ffffff"
     bordercolor="#666666"
     borderopacity="1.0"
     inkscape:showpageshadow="2"
     inkscape:pageopacity="0.0"
     inkscape:pagecheckerboard="0"
     inkscape:deskcolor="#d1d1d1"
     inkscape:document-units="px"
     showgrid="false"
     inkscape:zoom="1.69375"
     inkscape:cx="231.73432"
     inkscape:cy="240.59041"
     inkscape:window-width="1846"
     inkscape:window-height="1016"
     inkscape:window-x="0"
     inkscape:window-y="0"
     inkscape:window-maximized="1"
     inkscape:current-layer="layer1" />
  <defs
     id="defs2" />
  <g
     inkscape:label="Layer 1"
     inkscape:groupmode="layer"
     id="layer1">
    <rect
       style="fill:#303030;stroke:#d0d0d0;stroke-width:0;stroke-linecap:square;stroke-miterlimit:3.6;stroke-dasharray:none;stroke-opacity:1;paint-order:markers fill stroke;fill-opacity:1"
       id="rect1084"
       width="127"
       height="127"
       x="5.0379833e-07"
       y="5.0379833e-07" />
    <path
       id="path234"
       style="fill:#d0d0d0;fill-opacity:1;stroke:#d0d0d0;stroke-width:0;stroke-linecap:square;stroke-miterlimit:3.6;paint-order:markers fill stroke"
       d="M 63.499998,10.583334 A 26.458331,26.458331 0 0 1 89.958337,37.041662 26.458331,26.458331 0 0 1 63.499998,63.499991 26.458331,26.458331 0 0 1 37.041665,37.041662 26.458331,26.458331 0 0 1 63.499998,10.583334 Z m 0,0 A 52.916662,52.916662 0 0 0 10.583334,63.499991 52.916662,52.916662 0 0 0 63.499998,116.41666 52.916662,52.916662 0 0 0 116.41667,63.499991 52.916662,52.916662 0 0 0 63.499998,10.583334 Z" />
  </g>
</svg>
