<?xml version="1.0" encoding="UTF-8" standalone="no"?>
<!-- Created with Inkscape (http://www.inkscape.org/) -->

<svg
   width="240"
   height="80"
   viewBox="0 0 63.5 21.166666"
   version="1.1"
   id="svg5"
   inkscape:version="1.2.2 (b0a8486541, 2022-12-01, custom)"
   sodipodi:docname="tricosm.svg"
   xml:space="preserve"
   xmlns:inkscape="http://www.inkscape.org/namespaces/inkscape"
   xmlns:sodipodi="http://sodipodi.sourceforge.net/DTD/sodipodi-0.dtd"
   xmlns="http://www.w3.org/2000/svg"
   xmlns:svg="http://www.w3.org/2000/svg"><sodipodi:namedview
     id="namedview7"
     pagecolor="#ffffff"
     bordercolor="#666666"
     borderopacity="1.0"
     inkscape:showpageshadow="2"
     inkscape:pageopacity="1"
     inkscape:pagecheckerboard="0"
     inkscape:deskcolor="#d1d1d1"
     inkscape:document-units="mm"
     showgrid="false"
     inkscape:zoom="4.0966667"
     inkscape:cx="145.36208"
     inkscape:cy="39.910496"
     inkscape:window-width="1846"
     inkscape:window-height="1016"
     inkscape:window-x="0"
     inkscape:window-y="0"
     inkscape:window-maximized="1"
     inkscape:current-layer="layer1" /><defs
     id="defs2" /><g
     inkscape:label="Layer 1"
     inkscape:groupmode="layer"
     id="layer1"><rect
       style="fill:#d0d0d0;stroke-width:10.0542;stroke-linecap:square;stroke-miterlimit:3.6;paint-order:markers fill stroke"
       id="rect260"
       width="79.375"
       height="21.166666"
       x="-79.375"
       y="0"
       transform="scale(-1,1)" /><path
       style="fill:#303030;fill-opacity:1;stroke-width:1"
       d="m 11.922385,19.301812 c -0.473024,-0.233365 -0.492957,-0.440738 -0.28525,-2.967455 0.08061,-0.980547 0.130604,-2.426876 0.14039,-4.061122 l 0.0152,-2.5382007 0.200283,-0.6510888 c 0.273424,-0.8888652 0.506067,-1.2963019 1.060602,-1.8574844 0.642464,-0.6501655 1.071768,-0.8212779 2.069317,-0.8247898 0.677336,-0.00238 0.759566,0.013608 1.209982,0.2353486 1.176859,0.5793652 1.872903,1.9694742 1.896175,3.7869531 0.01243,0.971738 -0.07408,1.386229 -0.466299,2.233776 -0.640736,1.384576 -1.991328,2.204107 -3.280362,1.990508 -0.827819,-0.137173 -1.538109,-0.591964 -1.906625,-1.220789 -0.356714,-0.608687 -0.362786,-0.499611 -0.09722,1.746569 0.07545,0.638176 0.219601,1.558011 0.320334,2.044077 0.299306,1.444244 0.238771,1.874043 -0.295379,2.097225 -0.296915,0.12406 -0.302525,0.123929 -0.581143,-0.01353 z m 2.836413,-5.570194 c 0.525805,-0.249274 0.921838,-0.624822 1.371387,-1.300453 0.758505,-1.139961 1.217108,-2.431334 1.227893,-3.4575912 0.0053,-0.4974984 -0.02324,-0.6723833 -0.147569,-0.9065002 -0.53011,-0.9982352 -1.638899,-1.2012944 -2.563015,-0.4693803 -0.934445,0.7400941 -1.930184,2.8296877 -2.01112,4.2204097 -0.04828,0.829745 0.06272,1.22753 0.450911,1.615715 0.484779,0.484781 1.060679,0.587383 1.671513,0.2978 z m 37.674159,5.553449 c -0.174609,-0.0949 -0.321714,-0.269919 -0.471379,-0.560823 -0.213073,-0.414153 -0.21738,-0.443904 -0.208793,-1.44264 0.0049,-0.560871 0.08164,-1.737715 0.170688,-2.615208 0.173904,-1.713488 0.168296,-2.475788 -0.02575,-3.496135 -0.286434,-1.5063661 -0.322458,-3.5306531 -0.07388,-4.1518989 0.333024,-0.8323062 1.178763,-0.7696675 1.398654,0.1035893 0.14055,0.5581802 0.08955,1.2188694 -0.249081,3.2262166 l -0.32976,1.954807 0.157128,0.365254 c 0.652736,1.517318 3.025812,1.654016 3.889759,0.224064 0.336403,-0.556794 0.356294,-0.848956 0.162796,-2.391234 -0.186507,-1.4865737 -0.219273,-2.846947 -0.08008,-3.325196 0.04979,-0.1710778 0.183485,-0.4150913 0.297101,-0.5422522 0.170609,-0.1909412 0.260009,-0.2312016 0.513407,-0.2312016 0.258637,0 0.338319,0.037725 0.507364,0.2402127 0.315815,0.3782936 0.397897,0.7907691 0.391699,1.9683517 -0.0062,1.179745 -0.153735,2.2911014 -0.471166,3.5493654 -0.199031,0.788938 -0.203176,0.836692 -0.08405,0.968315 0.295506,0.326532 0.897992,0.51078 1.30766,0.399899 0.428117,-0.115874 0.812279,-0.556037 0.812279,-0.930694 0,-0.246661 0.220604,-0.143622 0.391836,0.183017 0.307138,0.585901 0.153246,1.363411 -0.342993,1.732899 -0.278647,0.207476 -0.914038,0.20276 -1.322892,-0.0099 -0.323979,-0.168449 -0.756512,-0.611019 -0.935573,-0.957287 -0.06311,-0.12204 -0.138381,-0.22148 -0.167272,-0.220976 -0.02889,5.2e-4 -0.207962,0.178152 -0.397935,0.394776 -0.235951,0.269054 -0.499746,0.469842 -0.832457,0.633635 -0.457639,0.225296 -0.533116,0.239773 -1.250033,0.239773 -0.682572,0 -0.808309,-0.02123 -1.193038,-0.201398 -0.565433,-0.264799 -0.992766,-0.622551 -1.287953,-1.078244 l -0.240035,-0.370549 -0.05022,0.281196 c -0.131525,0.736583 -0.01326,2.335977 0.233784,3.162094 0.08022,0.268256 0.292023,0.788031 0.470656,1.155057 0.259129,0.532407 0.324794,0.744538 0.324794,1.049269 0,0.660436 -0.476953,0.986349 -1.015282,0.693766 z M 7.2412531,14.621139 C 6.8322986,14.505787 6.4332318,14.116701 6.1952682,13.601315 L 5.9838752,13.143476 5.9608487,10.509228 5.9378223,7.8749815 4.9399205,7.8985067 C 3.9888377,7.9209299 3.9277235,7.9315037 3.6373291,8.1238985 3.4485088,8.2489977 3.2727959,8.4489409 3.1752746,8.6496684 3.0887243,8.8278161 2.9917788,8.973573 2.9598405,8.973573 2.847403,8.973573 2.9067717,8.4966917 3.0805008,8.0043672 3.3240299,7.3142388 3.5728413,6.9829599 4.0120093,6.7641132 L 4.3806498,6.5804121 H 7.0859124 9.7911753 V 7.2330924 7.8857727 H 8.1173166 6.4434587 l 0.02699,2.0486907 c 0.02514,1.9083086 0.037974,2.0763276 0.1872942,2.4520126 0.2850923,0.717283 0.8250611,1.083114 1.430918,0.969454 0.468461,-0.08789 0.8322749,-0.54218 0.8322749,-1.039265 0,-0.148781 0.035819,-0.224731 0.1059849,-0.224731 0.1582653,0 0.2746655,0.53665 0.2447774,1.128518 -0.031721,0.628164 -0.2633888,1.035084 -0.722697,1.269406 -0.3506904,0.178909 -0.9320067,0.237264 -1.3077485,0.13128 z m 14.2619089,-0.02669 c -0.352427,-0.12374 -0.707806,-0.514009 -0.881808,-0.968382 -0.11537,-0.301268 -0.131634,-0.672675 -0.151328,-3.455905 -0.0203,-2.8696585 -0.0118,-3.1385248 0.106675,-3.3711734 0.247196,-0.4854252 0.922548,-0.5995731 1.340087,-0.2265011 0.212093,0.1895046 0.233837,0.2469369 0.226521,0.5982901 -0.0053,0.2529327 -0.176473,0.9423783 -0.490248,1.9742266 -0.615417,2.0237978 -0.708415,2.4267028 -0.713686,3.0919778 -0.005,0.629364 0.173793,1.074996 0.488863,1.218551 0.556717,0.253657 1.02071,-0.09577 1.16547,-0.877713 0.06537,-0.353132 0.220853,-0.33315 0.421757,0.05421 0.373481,0.72009 0.163649,1.593988 -0.458,1.907467 -0.369501,0.186329 -0.639975,0.200428 -1.054303,0.05495 z m 4.266263,0.006 c -0.278051,-0.125129 -0.386441,-0.309498 -0.386441,-0.657322 0,-0.366173 0.198474,-0.710451 0.788103,-1.367058 0.280267,-0.312103 0.577269,-0.707297 0.660007,-0.878209 0.319621,-0.660256 0.468819,-2.1792307 0.276949,-2.8196319 C 26.983387,8.4621121 26.580446,8.064502 26.180704,7.9631075 25.196756,7.7135292 24.907089,7.3676586 25.202912,6.7956001 c 0.140087,-0.2709004 0.452869,-0.4327463 0.836321,-0.4327463 1.190473,0 1.800119,1.524352 1.502786,3.7575582 -0.05477,0.411387 -0.07837,0.761092 -0.05244,0.77712 0.02593,0.01603 0.451139,-0.467415 0.944899,-1.0743178 0.862,-1.0595227 0.906993,-1.1317421 1.129988,-1.8137641 C 29.84528,7.150588 30.103639,6.6908563 30.41071,6.50362 c 0.322226,-0.1964768 0.717318,-0.182476 0.969255,0.034348 0.173089,0.1489626 0.202557,0.2274806 0.197319,0.5257705 -0.0079,0.4482612 -0.236209,0.8947659 -0.862985,1.6875326 -0.265981,0.3364224 -0.565218,0.7727363 -0.664971,0.9695874 -0.376332,0.7426545 -0.486413,2.1196115 -0.211893,2.6504755 0.256189,0.495418 0.878272,0.790038 1.47819,0.700074 0.256725,-0.0385 0.394849,-0.120577 0.675965,-0.401694 0.194322,-0.194322 0.353312,-0.387499 0.353312,-0.429284 0,-0.179163 0.233794,-0.05483 0.330038,0.175517 0.155715,0.372673 0.134108,1.020638 -0.04647,1.393662 -0.507269,1.047878 -2.046725,1.190277 -2.817349,0.260603 -0.397669,-0.479748 -0.544693,-1.123346 -0.541595,-2.370858 l 0.0027,-1.08152 -0.385695,0.414371 c -0.533471,0.573133 -1.038016,1.341677 -1.54042,2.346425 -0.234491,0.468955 -0.522271,0.943615 -0.639512,1.054799 -0.255842,0.242626 -0.623493,0.308128 -0.937164,0.166967 z m 10.781645,-0.01386 c -1.039698,-0.277801 -1.839885,-1.202334 -2.221857,-2.567124 -0.09978,-0.356518 -0.131193,-0.718776 -0.128908,-1.486661 0.0028,-0.9013782 0.0247,-1.0803666 0.196246,-1.5954401 0.359367,-1.0789825 1.028539,-1.8779446 1.936958,-2.3126378 0.430578,-0.2060389 0.534285,-0.2255633 1.198106,-0.2255633 0.674441,0 0.761424,0.017084 1.209032,0.237439 0.585445,0.2882134 1.093671,0.8178034 1.419007,1.4786549 0.362472,0.7362853 0.481579,1.3376681 0.478799,2.4175473 -0.0022,0.820614 -0.02735,1.018665 -0.194868,1.528608 -0.229955,0.700045 -0.619024,1.322043 -1.114957,1.782455 -0.426723,0.39616 -0.802099,0.600808 -1.376441,0.750405 -0.511378,0.133197 -0.881451,0.131167 -1.401117,-0.0077 z m 0.673662,-0.860305 c 0.670513,-0.318689 1.38306,-1.196071 1.944687,-2.394555 0.341523,-0.728792 0.645053,-1.8537537 0.645053,-2.3907455 0,-1.0904051 -0.762902,-1.8493194 -1.774686,-1.7654146 -1.00198,0.083091 -2.043352,1.3558749 -2.694015,3.2926731 -0.351483,1.046245 -0.415465,1.925536 -0.179009,2.460089 0.206361,0.466514 0.332846,0.599772 0.767887,0.809011 0.419613,0.201818 0.849963,0.198129 1.290083,-0.01106 z m 7.885995,0.826644 C 44.417892,14.371518 43.891607,14.052709 43.385069,13.507551 42.493908,12.548443 42.182555,11.223503 42.46245,9.5813887 42.677417,8.3201751 43.348083,7.3569883 44.357483,6.8598102 L 44.851061,6.616674 47.264129,6.594917 49.677195,6.57316 v 0.6563078 0.6563089 h -1.269098 c -0.698007,0 -1.269101,0.013296 -1.269101,0.029545 0,0.016252 0.20845,0.2379947 0.46322,0.4927663 1.487833,1.4878327 1.938723,3.279913 1.198123,4.761987 -0.375443,0.751325 -1.033791,1.235658 -1.940983,1.427942 -0.644796,0.136668 -1.098972,0.124944 -1.748629,-0.04514 z m 1.248528,-1.334951 c 0.662602,-0.228285 1.180813,-0.791187 1.400763,-1.521571 0.381249,-1.265983 0.0661,-2.5502077 -0.850842,-3.467147 L 46.550357,7.8704143 45.738744,7.898248 c -0.685656,0.023514 -0.874861,0.057179 -1.219175,0.2169247 -1.0832,0.502555 -1.709454,1.557023 -1.645444,2.7705693 0.06685,1.267485 0.831548,2.189647 2.020034,2.435997 0.384033,0.07959 1.074846,0.03066 1.465096,-0.103787 z M 21.213082,5.5499206 c -0.07977,-0.043285 -0.152495,-0.08406 -0.161608,-0.090615 -0.02051,-0.014751 0.806492,-2.6437983 0.964495,-3.0661457 0.216191,-0.5778772 0.771777,-0.7872579 1.116187,-0.4206507 0.298806,0.3180633 0.193022,0.6046947 -0.798183,2.1627738 -0.487607,0.7664737 -0.906649,1.4160319 -0.931204,1.4434623 -0.02456,0.027431 -0.109915,0.014459 -0.189687,-0.028825 z"
       id="path271" /></g></svg>
